<svg xmlns="http://www.w3.org/2000/svg" viewBox="0 0 512 512" width="512" height="512">
  <!-- 단색 딥 네이비 배경 -->
  <rect width="512" height="512" rx="112" ry="112" fill="#0d1f3c"/>

  <!-- 캔들 1 (최단, 좌측) -->
  <line x1="108" y1="344" x2="108" y2="325" stroke="rgba(255,255,255,0.55)" stroke-width="7" stroke-linecap="round"/>
  <line x1="108" y1="402" x2="108" y2="385" stroke="rgba(255,255,255,0.55)" stroke-width="7" stroke-linecap="round"/>
  <rect x="87" y="344" width="42" height="42" rx="5" ry="5" fill="white" opacity="0.9"/>

  <!-- 캔들 2 -->
  <line x1="196" y1="292" x2="196" y2="273" stroke="rgba(255,255,255,0.55)" stroke-width="7" stroke-linecap="round"/>
  <line x1="196" y1="354" x2="196" y2="338" stroke="rgba(255,255,255,0.55)" stroke-width="7" stroke-linecap="round"/>
  <rect x="175" y="292" width="42" height="58" rx="5" ry="5" fill="white" opacity="0.9"/>

  <!-- 캔들 3 -->
  <line x1="284" y1="236" x2="284" y2="215" stroke="rgba(255,255,255,0.55)" stroke-width="7" stroke-linecap="round"/>
  <line x1="284" y1="314" x2="284" y2="295" stroke="rgba(255,255,255,0.55)" stroke-width="7" stroke-linecap="round"/>
  <rect x="263" y="236" width="42" height="74" rx="5" ry="5" fill="white" opacity="0.9"/>

  <!-- 캔들 4 (최장, 우측) -->
  <line x1="372" y1="175" x2="372" y2="152" stroke="rgba(255,255,255,0.55)" stroke-width="7" stroke-linecap="round"/>
  <line x1="372" y1="285" x2="372" y2="264" stroke="rgba(255,255,255,0.55)" stroke-width="7" stroke-linecap="round"/>
  <rect x="351" y="175" width="42" height="96" rx="5" ry="5" fill="white" opacity="0.9"/>

  <!-- 종가 연결 — 우상향 초록 곡선 화살표 -->
  <path d="M 88,365 C 135,340 175,305 220,278 C 265,252 315,215 405,168"
        fill="none" stroke="#4ade80" stroke-width="12" stroke-linecap="round" stroke-linejoin="round" opacity="0.95"/>
  <!-- 화살촉 -->
  <polygon points="405,168 378,172 390,196" fill="#4ade80" opacity="0.95"/>
</svg>
